<svg height="512" viewBox="0 0 64 64" width="512" xmlns="http://www.w3.org/2000/svg"><path style="fill:#FFF" d="m59 26h-10v-8h3a1 1 0 0 0 .573-1.819l-20-14a1 1 0 0 0 -1.146 0l-20 14a1 1 0 0 0 .573 1.819h3v8h-10a3 3 0 0 0 -3 3v30a3 3 0 0 0 3 3h54a3 3 0 0 0 3-3v-30a3 3 0 0 0 -3-3zm-8 16v2h-38v-2zm-27.941-24a9 9 0 0 0 17.882 0h.059v22h-18v-22zm1.941-1a7 7 0 1 1 7 7 7.008 7.008 0 0 1 -7-7zm22 23h-4v-22h4zm-15-35.779 16.828 11.779h-7.887a9 9 0 0 0 -17.882 0h-7.887zm-11 13.779v22h-4v-22zm38 42h-54a1 1 0 0 1 -1-1v-30a1 1 0 0 1 1-1h10v12h-3a1 1 0 0 0 -1 1v4a1 1 0 0 0 1 1h40a1 1 0 0 0 1-1v-4a1 1 0 0 0 -1-1h-3v-12h10a1 1 0 0 1 1 1v3h-1a3 3 0 0 0 -3 3v18a3 3 0 0 0 3 3h1v3a1 1 0 0 1 -1 1zm1-26v20h-1a1 1 0 0 1 -1-1v-18a1 1 0 0 1 1-1z"/><path style="fill:#FFF" d="m31 23h2v-1a2 2 0 0 0 2-2v-2a2 2 0 0 0 -2-2h-2v-2h4v-2h-2v-1h-2v1a2 2 0 0 0 -2 2v2a2 2 0 0 0 2 2h2v2h-4v2h2z"/><path style="fill:#FFF" d="m25 28h14v2h-14z"/><path style="fill:#FFF" d="m25 32h14v2h-14z"/><path style="fill:#FFF" d="m25 36h14v2h-14z"/><path style="fill:#FFF" d="m11 48h14v2h-14z"/><path style="fill:#FFF" d="m27 48h26v2h-26z"/><path style="fill:#FFF" d="m11 52h32v2h-32z"/><path style="fill:#FFF" d="m45 52h8v2h-8z"/><path style="fill:#FFF" d="m11 56h4v2h-4z"/><path style="fill:#FFF" d="m17 56h36v2h-36z"/></svg>